<svg width="24.000000000000004" height="24.000000000000004" xmlns="http://www.w3.org/2000/svg">

 <g>
  <title>background</title>
  <rect fill="none" id="canvas_background" height="402" width="582" y="-1" x="-1"/>
 </g>
 <g>
  <title>Layer 1</title>
  <path id="svg_2" d="m19.60126,20.69722c0,0 -1.3,-0.4 -1.9,-1.2c2.7,-1.9 4.4,-5.1 4.4,-8.6c0,-5.7 -4.5,-10.4 -10,-10.4c-5.6,0 -10.1,4.7 -10.1,10.4s4.5,10.4 10,10.4c0.7,0 1.4,-0.1 2,-0.2c0.7,1.1 1.8,2.4 4.1,2.4c0.5,0 1,-0.1 1.5,-0.2c0.2,0 0.4,-0.2 0.4,-0.5l0,-1.7c0,-0.1 -0.2,-0.3 -0.4,-0.4zm-2.09996,-8.50042c0,1.7 -0.60004,3.30042 -1.50004,4.60042c-0.1,0.1 -0.2,0.2 -0.4,0.2c-0.1,0 -0.3,0 -0.4,-0.2c-0.6,-0.7 -1.9,-1.8 -3.9,-1.8l0,1.1c0.6,0.2 1.6,0.6 2.3,1.9c0.1,0.1 0.1,0.3 0,0.4c-0.1,0.1 -0.2,0.2 -0.3,0.3c-0.4,0.1 -0.8,0.2 -1.3,0.2c-3,0 -5.4,-3 -5.4,-6.7l0,-2.5c0.1,-3.7 2.5,-6.7 5.5,-6.7c3,0 5.4,3 5.4,6.7l0,2.49958l-0.09958,0.00075z"/>
 </g>
</svg>